<?xml version="1.0" encoding="UTF-8"?>
<svg version="1.1" xmlns="http://www.w3.org/2000/svg" width="128" height="128">
<path d="M0 0 C1.67335996 1.67335996 1.11962895 3.71387909 1.12442017 5.94747925 C1.11902725 7.00807053 1.11902725 7.00807053 1.11352539 8.09008789 C1.11367142 8.83150528 1.11381744 9.57292267 1.1139679 10.33680725 C1.11326865 12.79878621 1.10547574 15.26069043 1.09765625 17.72265625 C1.09579211 19.42516539 1.09436819 21.12767507 1.09336853 22.83018494 C1.08954302 27.31993073 1.07971247 31.80964438 1.06866455 36.29937744 C1.05845113 40.87731491 1.05387106 45.45525756 1.04882812 50.03320312 C1.03809022 59.02214957 1.02101341 68.01107212 1 77 C-3.61826331 78.36053023 -7.96524264 79.33478546 -12.75 79.875 C-25.16294756 81.58441015 -35.06655972 86.49036601 -45 94 C-45.16265947 84.37685087 -45.28680454 74.7541796 -45.3626852 65.12995243 C-45.39911679 60.66027609 -45.44847878 56.19154468 -45.52807617 51.72241211 C-45.60450156 47.40402979 -45.64606596 43.08655245 -45.6641407 38.7675457 C-45.67700997 37.12530722 -45.70214151 35.48311466 -45.7401104 33.84126472 C-46.0841194 18.33989858 -46.0841194 18.33989858 -39.95887756 11.68455505 C-28.49088444 1.82254727 -14.77093988 -1.204582 0 0 Z " fill="#0F54C9" transform="translate(112,15)"/>
<path d="M0 0 C11.59066605 0.22046353 22.38336237 4.447767 31.16712952 12.00144958 C37.87541635 19.29029703 37.10650606 27.31971269 36.8918457 36.60205078 C36.87876958 38.27068493 36.86881493 39.93934619 36.86183167 41.60801697 C36.83526354 45.97345822 36.76664281 50.33723655 36.68890381 54.70202637 C36.61694839 59.16651927 36.58525167 63.63128422 36.55004883 68.09619141 C36.47525686 76.837184 36.35598467 85.57683169 36.20825195 94.31689453 C35.38693535 93.69460213 35.38693535 93.69460213 34.54902649 93.05973816 C33.82982529 92.51706802 33.11062408 91.97439789 32.36962891 91.4152832 C31.3008123 90.6073658 31.3008123 90.6073658 30.21040344 89.78312683 C20.18584587 82.44185911 8.50539885 80.24655787 -3.57348633 78.96264648 C-8.69753911 78.41110346 -8.69753911 78.41110346 -9.79174805 77.31689453 C-9.892005 74.94927878 -9.9279374 72.6108238 -9.92114258 70.24267578 C-9.9228949 69.50286469 -9.92464722 68.76305359 -9.92645264 68.00082397 C-9.93087114 65.5436573 -9.92793318 63.086562 -9.92456055 60.62939453 C-9.92523359 58.92928046 -9.92620361 57.22916648 -9.92745972 55.52905273 C-9.92893669 51.96125373 -9.92678216 48.39347971 -9.92211914 44.82568359 C-9.91642185 40.24200959 -9.91970086 35.65839414 -9.9256916 31.07472229 C-9.92929724 27.56269893 -9.92815862 24.05068955 -9.92556381 20.53866577 C-9.92489455 18.8480936 -9.92572294 17.15752018 -9.92804337 15.46694946 C-9.93056994 13.10830296 -9.92672926 10.74975258 -9.92114258 8.39111328 C-9.92316681 7.68562347 -9.92519104 6.98013367 -9.92727661 6.25326538 C-9.89411427 -1.26641505 -6.90396448 0.01485966 0 0 Z " fill="#0F54C9" transform="translate(24.791748046875,14.68310546875)"/>
<path d="M0 0 C6.875 0.875 6.875 0.875 8 2 C8.10033866 4.48953697 8.13617943 6.95134953 8.12939453 9.44140625 C8.13114685 10.22023163 8.13289917 10.99905701 8.13470459 11.80148315 C8.13912349 14.38851111 8.13618499 16.97547129 8.1328125 19.5625 C8.13348553 21.35229506 8.13445554 23.14209002 8.13571167 24.93188477 C8.13718869 28.68799711 8.13503394 32.44408572 8.13037109 36.20019531 C8.1246738 41.02600493 8.12795278 45.85175895 8.13394356 50.67756653 C8.13754905 54.37488223 8.13641064 58.07218464 8.13381577 61.76950073 C8.13314646 63.54938768 8.13397503 65.32927582 8.13629532 67.10916138 C8.13882165 69.59233822 8.13498154 72.07542374 8.12939453 74.55859375 C8.13141876 75.30148651 8.13344299 76.04437927 8.13552856 76.80978394 C8.11426262 81.88573738 8.11426262 81.88573738 7 83 C1.85949436 83.25702528 -2.7530084 82.92050105 -7.8125 82 C-20.62337387 79.87989059 -34.14127697 80.53640551 -47 82 C-40.25231235 73.85623905 -29.35039764 70.62735783 -19.125 69.6171875 C-18.41819092 69.5452417 -17.71138184 69.4732959 -16.9831543 69.39916992 C-15.56465988 69.26084637 -14.14398843 69.14292215 -12.72192383 69.0480957 C-8.95382775 68.68785969 -7.06421394 68.05101108 -4.07421875 65.67578125 C-0.89930319 61.58008038 -0.87095545 58.2295929 -0.79467773 53.12988281 C-0.77473251 51.94896057 -0.75478729 50.76803833 -0.73423767 49.55133057 C-0.71752518 48.28142273 -0.70081268 47.01151489 -0.68359375 45.703125 C-0.66281265 44.39921814 -0.64203156 43.09531128 -0.62062073 41.75189209 C-0.56554764 38.29304192 -0.5160736 34.8341336 -0.46777344 31.37518311 C-0.41745028 27.84251762 -0.36182078 24.30993611 -0.30664062 20.77734375 C-0.19923979 13.85163537 -0.09775503 6.92585106 0 0 Z " fill="#0F54C9" transform="translate(120,30)"/>
<path d="M0 0 C0.00586624 0.72361221 0.01173248 1.44722443 0.01777649 2.19276428 C0.07583628 9.03379127 0.14798863 15.87454247 0.23571491 22.71524906 C0.28031906 26.23161053 0.31959638 29.7478588 0.34643555 33.2644043 C0.37757643 37.313281 0.43236099 41.36154538 0.48828125 45.41015625 C0.49467117 46.66458023 0.5010611 47.91900421 0.50764465 49.21144104 C0.61293271 55.49173558 0.71732151 60.54698338 4 66 C8.94336821 68.93075459 13.60219735 69.46966661 19.1875 69.875 C29.77462106 70.89135441 38.70655853 74.21445698 47 81 C47 81.33 47 81.66 47 82 C46.36578125 81.9278125 45.7315625 81.855625 45.078125 81.78125 C31.65462968 80.44631676 18.08595912 80.13089324 4.78515625 82.55078125 C0.78696844 83.19565025 -2.95899633 83.20205018 -7 83 C-8.71987206 81.28012794 -8.11974788 79.09122971 -8.12442017 76.79867554 C-8.12082489 76.05421173 -8.11722961 75.30974792 -8.11352539 74.54272461 C-8.11367142 73.76229294 -8.11381744 72.98186127 -8.1139679 72.17778015 C-8.11326858 69.5859402 -8.10547536 66.99417122 -8.09765625 64.40234375 C-8.09579213 62.6101536 -8.0943682 60.81796294 -8.09336853 59.02577209 C-8.08954284 54.29929203 -8.07971212 49.57284248 -8.06866455 44.84637451 C-8.05845153 40.0271445 -8.05387115 35.20790958 -8.04882812 30.38867188 C-8.03808989 20.92576781 -8.02101286 11.46288644 -8 2 C-4.91190305 0.23537317 -3.76687864 0 0 0 Z " fill="#0F54C9" transform="translate(8,30)"/>
</svg>
